# xmcd
#
# Track frame offsets: 
#        150
#        4649
#        22394
#        39282
#        55479
#        76877
#        78939
#        94137
#        113797
#        114767
#        133629
#        150579
#        154319
#        169487
#        187474
#
# Disc length: 2720 seconds
#
# Revision: 5
# Processed by: cddbd v1.5.2PL0 Copyright (c) Steve Scherf et al.
# Submitted via: ExactAudioCopyFreeDBPlugin 1.0
#
DISCID=bf0a9e0f
DTITLE=Rednex - ...farm out!
DYEAR=2000
DGENRE=Country
TTITLE0=Intro - Fresh pigs and more
TTITLE1=The Spirit of the Hawk F.A.F. Radio Mix
TTITLE2=The way I mate
TTITLE3=The Devil went down to Georgia
TTITLE4=Hold me for a while
TTITLE5=Boring...
TTITLE6=Where you gonna go
TTITLE7=Maggie Moonshine - Extended Version
TTITLE8=Animal in the rain
TTITLE9=Ranger Jack
TTITLE10=Get the Truck loaded
TTITLE11=Message from our Sponsor
TTITLE12=Is he alive
TTITLE13=McKenzie Brothers II (continued...)
TTITLE14=Bottleneck Bob 2000
EXTD=YEAR: 2000
EXTT0=
EXTT1=
EXTT2=
EXTT3=
EXTT4=
EXTT5=
EXTT6=
EXTT7=
EXTT8=
EXTT9=
EXTT10=
EXTT11=
EXTT12=
EXTT13=
EXTT14=
PLAYORDER=
